<svg width="106" height="111" viewBox="0 0 106 111" fill="none" xmlns="http://www.w3.org/2000/svg">
    <g filter="url(#filter0_d_814_6481)">
        <rect x="30" y="15" width="51" height="51" rx="14" fill="white"/>
    </g>
    <path d="M52.5288 47.1233L45.9998 47.1233" stroke="#FE724C" stroke-width="2" stroke-linecap="round"/>
    <path d="M64.2808 47.1233L52.5288 47.1233" stroke="#FE724C" stroke-opacity="0.25" stroke-width="2" stroke-linecap="round"/>
    <path d="M55.3467 47C55.3467 45.3431 54.0035 44 52.3467 44C50.6898 44 49.3467 45.3431 49.3467 47C49.3467 48.6569 50.6898 50 52.3467 50C54.0035 50 55.3467 48.6569 55.3467 47Z" fill="#FE724C" stroke="#FE724C" stroke-width="1.5"/>
    <path d="M57.752 34.8767L64.281 34.8767" stroke="#FE724C" stroke-width="2" stroke-linecap="round"/>
    <path d="M46 34.8767L57.752 34.8767" stroke="#FE724C" stroke-opacity="0.25" stroke-width="2" stroke-linecap="round"/>
    <path d="M54.9336 35C54.9336 36.6569 56.2767 38 57.9336 38C59.5904 38 60.9336 36.6569 60.9336 35C60.9336 33.3431 59.5904 32 57.9336 32C56.2767 32 54.9336 33.3431 54.9336 35Z" fill="#FE724C" stroke="#FE724C" stroke-width="1.5"/>
    <defs>
        <filter id="filter0_d_814_6481" x="0" y="0" width="111" height="111" filterUnits="userSpaceOnUse" color-interpolation-filters="sRGB">
            <feFlood flood-opacity="0" result="BackgroundImageFix"/>
            <feColorMatrix in="SourceAlpha" type="matrix" values="0 0 0 0 0 0 0 0 0 0 0 0 0 0 0 0 0 0 127 0" result="hardAlpha"/>
            <feOffset dy="15"/>
            <feGaussianBlur stdDeviation="15"/>
            <feColorMatrix type="matrix" values="0 0 0 0 0.913725 0 0 0 0 0.929412 0 0 0 0 0.94902 0 0 0 0.5 0"/>
            <feBlend mode="normal" in2="BackgroundImageFix" result="effect1_dropShadow_814_6481"/>
            <feBlend mode="normal" in="SourceGraphic" in2="effect1_dropShadow_814_6481" result="shape"/>
        </filter>
    </defs>
</svg>
